<?xml version="1.0" standalone="no"?><!DOCTYPE svg PUBLIC "-//W3C//DTD SVG 1.1//EN" "http://www.w3.org/Graphics/SVG/1.1/DTD/svg11.dtd"><svg t="1760500592968" class="icon" viewBox="0 0 1024 1024" version="1.1" xmlns="http://www.w3.org/2000/svg" p-id="5452" xmlns:xlink="http://www.w3.org/1999/xlink" width="200" height="200"><path d="M916.6 586.5l-42.7-48.6-0.5-0.5c-13-12.9-30.3-20-48.7-19.9-18.3 0.1-35.5 7.2-48.5 20L445.3 808.4l-3.7 3v143.4h140.7l332.9-270.1 0.4-0.3 0.4-0.4c26.9-27 27.1-70.6 0.6-97.5zM554 874.9h-32.6v-32.8l301.7-241.6 29.2 34L554 874.9z" p-id="5453"></path><path d="M232.1 727.9l-53 46.9-1.5 1.3V145.2H818v278.4l80 65.3V105.2c0-22.1-17.9-40-40-40H137.6c-22.1 0-40 17.9-40 40V953h0.7l133.8-118.3 134.5 118.9V846.8l-81.5-72.1-53-46.8z" p-id="5454"></path><path d="M295.4 342.6h265.5c21.9 0 39.7-17.9 39.7-39.7 0-21.9-17.9-39.7-39.7-39.7H295.4c-21.9 0-39.7 17.9-39.7 39.7-0.1 21.8 17.8 39.7 39.7 39.7zM255.6 507.9c0 21.9 17.9 39.7 39.7 39.7h334.5c21.9 0 39.7-17.9 39.7-39.7 0-21.9-17.9-39.7-39.7-39.7H295.4c-21.9-0.1-39.8 17.8-39.8 39.7z" p-id="5455"></path></svg>